<?xml version="1.0" encoding="iso-8859-1"?>
<!-- Generator: Adobe Illustrator 19.0.0, SVG Export Plug-In . SVG Version: 6.00 Build 0)  -->
<svg version="1.1" id="Capa_1" xmlns="http://www.w3.org/2000/svg" xmlns:xlink="http://www.w3.org/1999/xlink" x="0px" y="0px"
	 viewBox="0 0 511.999 511.999" style="enable-background:new 0 0 511.999 511.999;" xml:space="preserve">
<path style="fill:#B3B6C3;" d="M152.657,129.551h58.155c11.073,0,20.048-8.976,20.048-20.048l0,0
	c0-11.073-8.976-20.048-20.048-20.048h-58.155c-14.128,0-23.823,14.221-18.662,27.371l0,0
	C137.007,124.502,144.411,129.551,152.657,129.551z"/>
<g>
	<circle style="fill:#C9F3FF;" cx="109.996" cy="322.549" r="99.997"/>
	<circle style="fill:#C9F3FF;" cx="401.986" cy="322.549" r="99.997"/>
</g>
<path d="M465.882,259.167c1.956,1.976,4.53,2.964,7.106,2.964c2.543,0,5.086-0.964,7.036-2.894
	c3.924-3.886,3.956-10.217,0.07-14.142l-0.294-0.295c-3.887-3.926-10.217-3.956-14.143-0.07c-3.924,3.886-3.956,10.217-0.07,14.142
	L465.882,259.167z"/>
<path d="M503.016,278.979c-2.186-5.072-8.069-7.412-13.141-5.226c-5.072,2.186-7.412,8.069-5.227,13.141
	c14.684,34.075,7.216,73.049-19.025,99.289c-35.09,35.09-92.185,35.09-127.275,0s-35.09-92.185,0-127.275
	c6.514-6.514,13.832-11.87,21.674-16.018l32.651,83.304c1.546,3.943,5.318,6.354,9.313,6.353c1.213,0,2.448-0.223,3.646-0.692
	c5.142-2.016,7.677-7.818,5.661-12.96l-32.658-83.322c18.777-5.054,39.095-3.974,57.934,3.857c5.099,2.12,10.952-0.296,13.072-5.396
	c2.119-5.1-0.297-10.953-5.396-13.072c-23.744-9.867-49.405-10.957-72.946-4.104l-45.651-116.472h60.54
	c4.406,0,8.436,2.032,11.056,5.574c2.619,3.542,3.382,7.989,2.092,12.202c-1.781,5.816-7.065,9.724-13.147,9.724h-18.534
	c-5.522,0-10,4.477-10,10s4.478,10,10,10h18.534c14.93,0,27.897-9.592,32.27-23.866c3.167-10.34,1.295-21.255-5.135-29.95
	c-6.431-8.695-16.32-13.682-27.135-13.682h-75.201c-3.306,0-6.398,1.634-8.261,4.365c-1.863,2.731-2.256,6.207-1.05,9.285
	l25.678,65.515H210.207l-5.594-19.999h6.199c16.568,0,30.048-13.48,30.048-30.048s-13.479-30.048-30.048-30.048h-58.154
	c-9.944,0-19.225,4.905-24.826,13.121c-5.602,8.216-6.777,18.647-3.146,27.903c4.546,11.586,15.526,19.072,27.972,19.072h31.189
	l6.651,23.778c-0.302,0.38-0.579,0.788-0.829,1.221l-33.568,58.141c-14.031-6.504-29.65-10.143-46.105-10.143
	C49.344,212.55,0,261.894,0,322.546c0,37.162,18.527,70.074,46.827,89.997H18.331c-5.522,0-10,4.477-10,10c0,5.523,4.478,10,10,10
	h181.661c5.522,0,10-4.477,10-10c0-5.523-4.478-10-10-10h-26.827c25.732-18.115,43.377-46.973,46.368-79.997h18.573l6.698,20.999
	h-4.813c-5.522,0-10,4.477-10,10s4.478,10,10,10h18.499c3.191,0,6.191-1.523,8.074-4.101c1.883-2.577,2.423-5.898,1.453-8.938
	l-11.665-36.569l83.466-132.592l12.87,32.834c-10.337,5.201-19.973,12.08-28.482,20.588c-42.887,42.888-42.887,112.67,0,155.558
	c4.559,4.559,9.425,8.628,14.527,12.218h-45.166c-5.522,0-10,4.477-10,10c0,5.523,4.478,10,10,10h108.419
	c0.375,0,0.745-0.025,1.11-0.065c27.797-0.278,55.508-10.991,76.67-32.153c15.88-15.879,26.398-35.91,30.42-57.925
	C514.112,320.905,511.633,298.974,503.016,278.979z M143.304,113.174c-1.232-3.142-0.85-6.543,1.052-9.331
	c1.901-2.789,4.928-4.388,8.303-4.388h58.154c5.541,0,10.049,4.508,10.049,10.049c0,5.541-4.508,10.049-10.049,10.049h-58.154
	C148.495,119.552,144.823,117.049,143.304,113.174z M323.612,179.55l-74.645,118.579L215.801,179.55H323.612z M109.996,412.542
	c-49.624,0-89.997-40.373-89.997-89.997s40.373-89.997,89.997-89.997c12.816,0,25.01,2.698,36.056,7.548l-44.716,77.45
	c-1.786,3.094-1.786,6.906,0,10s5.088,5,8.66,5h89.438C194.444,377.481,156.24,412.542,109.996,412.542z M163.357,250.121
	c19.676,14.536,33.241,36.884,36.078,62.424h-72.12L163.357,250.121z M219.533,312.546c-2.981-32.923-20.524-61.705-46.127-79.831
	l24.586-42.586l34.24,122.416H219.533z"/>
<path d="M252.491,412.543c-2.63,0-5.21,1.07-7.07,2.93c-1.86,1.86-2.93,4.44-2.93,7.07c0,2.63,1.069,5.21,2.93,7.07
	c1.86,1.86,4.44,2.93,7.07,2.93c2.63,0,5.21-1.07,7.069-2.93c1.86-1.86,2.931-4.44,2.931-7.07c0-2.63-1.07-5.21-2.931-7.07
	C257.701,413.613,255.121,412.543,252.491,412.543z"/>
<g>
</g>
<g>
</g>
<g>
</g>
<g>
</g>
<g>
</g>
<g>
</g>
<g>
</g>
<g>
</g>
<g>
</g>
<g>
</g>
<g>
</g>
<g>
</g>
<g>
</g>
<g>
</g>
<g>
</g>
</svg>
